<?xml version="1.0" standalone="no"?>
<!DOCTYPE svg PUBLIC "-//W3C//DTD SVG 20010904//EN"
 "http://www.w3.org/TR/2001/REC-SVG-20010904/DTD/svg10.dtd">
<svg version="1.0" xmlns="http://www.w3.org/2000/svg"
 width="271.000000pt" height="271.000000pt" viewBox="0 0 271.000000 271.000000"
 preserveAspectRatio="xMidYMid meet">
<metadata>
Created by potrace 1.14, written by Peter Selinger 2001-2017
</metadata>
<g transform="translate(0.000000,271.000000) scale(0.100000,-0.100000)"
fill="#000000" stroke="none">
<path d="M1185 2649 c-22 -4 -58 -10 -79 -13 -78 -13 -303 -88 -316 -106 -3
-4 -16 -11 -30 -15 -14 -4 -70 -37 -125 -74 -113 -74 -267 -222 -337 -321 -40
-56 -136 -222 -137 -235 -1 -3 -8 -21 -16 -41 -20 -48 -54 -159 -61 -198 -2
-17 -9 -47 -15 -66 -5 -19 -12 -96 -15 -170 -7 -155 8 -276 51 -429 20 -69 86
-225 97 -229 4 -2 8 -10 8 -17 0 -8 28 -56 62 -107 66 -99 231 -272 308 -323
25 -16 47 -33 50 -36 14 -18 185 -104 269 -135 158 -59 270 -79 451 -79 140 0
213 7 303 31 34 9 69 17 77 19 34 7 145 51 148 58 2 4 9 7 16 7 22 0 157 77
231 132 279 206 477 534 522 866 10 73 10 302 1 367 -31 205 -106 396 -222
565 -67 98 -221 252 -321 321 -156 108 -327 181 -501 215 -116 22 -332 29
-419 13z m320 -253 c447 -55 850 -465 890 -906 l5 -55 -20 49 c-10 27 -24 53
-31 56 -6 4 -10 11 -10 16 3 20 -120 164 -139 164 -6 0 -10 4 -10 8 0 35 -304
198 -404 216 -6 1 -20 5 -31 9 -11 3 -31 8 -45 11 -14 3 -36 8 -50 11 -81 20
-496 23 -517 5 -2 -2 -11 -3 -20 -4 -10 -1 -34 -6 -53 -11 -19 -5 -39 -8 -44
-7 -4 2 -14 -3 -22 -9 -8 -6 -14 -9 -14 -6 0 8 -170 -50 -186 -64 -8 -7 -17
-9 -21 -6 -3 4 -18 -2 -32 -12 -14 -10 -36 -22 -48 -25 -13 -4 -23 -12 -23
-17 0 -5 -4 -9 -9 -9 -33 0 -261 -199 -261 -227 0 -5 -8 -18 -17 -29 -21 -22
-34 -47 -68 -129 l-25 -60 5 45 c15 146 18 167 45 250 97 305 314 545 603 666
33 14 68 28 76 30 9 2 43 11 76 19 33 8 87 18 120 21 33 4 61 7 63 9 4 4 165
-3 217 -9z"/>
</g>
</svg>
